# xmcd
#
# Track frame offsets:
#	150
#	13375
#	25612
#	39650
#	54675
#	68625
#	81275
#	94362
#	106887
#	117975
#
# Disc length: 1741 seconds
# Revision: 1
# Processed by: cddbd v1.5.2PL0 Copyright (c) Steve Scherf et al.
# Submitted via: dBpowerAMP V12.0
#
DISCID=8206cb0a
DTITLE=Charlie Rich - Classic Rich
DYEAR=2003
DGENRE=Country
TTITLE0=Beautiful Woman
TTITLE1=Rollin' With The Flow
TTITLE2=Nice 'n' Easy
TTITLE3=A Woman Left Lonely
TTITLE4=Since I Fell For You
TTITLE5=A Very Special Love Song
TTITLE6=I Take It On Home
TTITLE7=The Most Beautiful Girl
TTITLE8=I Love My Friend
TTITLE9=Easy Look
EXTD=
EXTT0=
EXTT1=
EXTT2=
EXTT3=
EXTT4=
EXTT5=
EXTT6=
EXTT7=
EXTT8=
EXTT9=
PLAYORDER=
